<svg width="42" height="125" viewBox="0 0 42 125" fill="none" xmlns="http://www.w3.org/2000/svg">
<g opacity="0.5">
<path d="M26 124.5V98.8736C26 97.9621 25.8754 97.055 25.6296 96.1773L22.7728 85.9745C22.5914 85.3265 22.4758 84.6618 22.4279 83.9906L21.5 71V69M21.5 69L14 59M21.5 69L22.4543 52.7767C22.4847 52.2597 22.5553 51.7458 22.6653 51.2397L25 40.5M14 59L4.55748 54.484C3.26354 53.8652 2.34016 52.6689 2.0693 51.2604V51.2604C1.30768 47.3 5.72125 44.4009 9.05339 46.6728L9.5487 47.0105C10.4854 47.6492 11.1639 48.6008 11.4622 49.6947L14 59ZM25 40.5L17.6091 37.9132C15.9017 37.3156 14.3884 36.2661 13.2304 34.8764L11.1649 32.3979C10.3946 31.4736 9.79748 30.4178 9.40219 29.2813L7.03019 22.4618C6.3595 20.5336 6.29505 18.4462 6.84552 16.4803L9.3351 7.58892C9.44122 7.20993 9.40251 6.80501 9.2265 6.453V6.453C8.46663 4.93326 10.3069 3.44554 11.6337 4.50697L16 8M25 40.5H26.6102C29.1121 40.5 31.5231 39.5621 33.3674 37.8715L35.383 36.0239C36.1234 35.3452 36.7574 34.5588 37.2635 33.6911L39.0532 30.6231C39.6789 29.5504 40.0994 28.3706 40.2931 27.144L41.2129 21.3183C41.4027 20.1162 41.3715 18.8895 41.1208 17.6986L39.6142 10.5427C39.5393 10.1867 39.5561 9.81761 39.6631 9.46997L39.7494 9.18944C40.3216 7.32967 38.2175 5.79778 36.6234 6.91364V6.91364C36.5412 6.97113 36.455 7.02251 36.3653 7.06735L30.5 10M16 8L18.0182 6.82273C20.4019 5.43223 23.4047 5.70406 25.5 7.5V7.5V7.5C26.329 8.16317 25.86 9.5 24.7984 9.5H22.2484C22.0834 9.5 21.9191 9.47977 21.759 9.43976L16 8Z" stroke="#D75496" stroke-linecap="round"/>
<path d="M30.5 10V10C29.517 10.3277 28.4656 10.3931 27.4496 10.1899L27.3381 10.1676C26.7818 10.0564 26.2429 9.87146 25.7356 9.61778L25.5 9.5" stroke="#D75496" stroke-linecap="round"/>
<path d="M28.5 10.5L25.7529 12.217C24.9221 12.7362 24.1722 13.3746 23.5271 14.1119L22.2325 15.5914C21.4179 16.5224 20.7831 17.5964 20.3604 18.759L19.3851 21.441C19.1292 22.1448 18.9531 22.8751 18.8602 23.6181L18.6901 24.979C18.5641 25.9871 18.5925 27.0086 18.7742 28.0082L19.5 32L20.1039 34.0129C20.6874 35.9581 21.8494 37.6795 23.4352 38.9482L23.5 39L25 40" stroke="#D75496" stroke-linecap="round"/>
</g>
</svg>
