<svg width="215" height="209" viewBox="0 0 215 209" fill="none" xmlns="http://www.w3.org/2000/svg">
<path d="M181.012 105.824C185.122 103.166 188.486 100.569 191.06 98.0732C211.036 78.6551 211.036 47.0623 191.06 27.6498C181.385 18.2444 168.522 13.0625 154.835 13.0625C141.147 13.0625 128.285 18.2444 118.609 27.6498C115.147 31.0152 111.519 35.7625 107.793 41.7969L107.512 37.9021L107.231 41.7969C103.506 35.7625 99.8773 31.0152 96.4153 27.6498C86.7399 18.2444 73.8718 13.0625 60.1898 13.0625C46.5079 13.0625 33.6398 18.2444 23.9644 27.6498C14.289 37.0552 8.95833 49.5641 8.95833 62.8642C8.95833 76.1644 14.289 88.6734 23.9644 98.0788C26.5323 100.575 29.9026 103.172 34.0123 105.829C29.9026 108.487 26.538 111.084 23.9644 113.58C14.289 122.985 8.95833 135.489 8.95833 148.794C8.95833 162.1 14.289 174.603 23.9644 184.009C33.6398 193.414 46.5021 198.596 60.1898 198.596C73.8776 198.596 86.7399 193.414 96.4153 184.009C99.8773 180.643 103.506 175.896 107.231 169.862L107.512 173.757L107.793 169.862C111.519 175.896 115.147 180.643 118.609 184.009C128.285 193.414 141.147 198.596 154.835 198.596C168.522 198.596 181.385 193.414 191.06 184.009C211.036 164.591 211.036 132.998 191.06 113.585C188.492 111.089 185.122 108.493 181.012 105.835V105.824ZM110.539 50.6172C115.05 42.5212 119.526 36.2138 123.475 32.3747C131.85 24.2342 142.987 19.7488 154.835 19.7488C166.682 19.7488 177.819 24.2342 186.194 32.3747C203.487 49.1852 203.487 76.5378 186.194 93.3427C183.104 96.3459 178.599 99.5776 172.792 102.954L168.86 105.239L117.64 101.74L156.915 57.7882L111.702 95.967L108.664 53.9548L110.527 50.6116L110.539 50.6172ZM28.8307 93.3427C20.4565 85.2021 15.8423 74.3758 15.8423 62.8587C15.8423 51.3415 20.4565 40.5153 28.8307 32.3747C37.205 24.2342 48.3421 19.7488 60.1898 19.7488C72.0376 19.7488 83.1746 24.2342 91.5489 32.3747C95.5039 36.2194 99.9748 42.5268 104.486 50.6172L106.349 53.9603L103.311 95.9726L58.0977 57.7938L97.3725 101.745L46.1525 105.244L42.2204 102.96C36.414 99.5832 31.9088 96.3515 28.8193 93.3482L28.8307 93.3427ZM104.491 161.03C99.9805 169.126 95.5039 175.434 91.5546 179.273C83.1804 187.419 72.0376 191.899 60.1955 191.899C48.3535 191.899 37.2107 187.413 28.8365 179.273C20.4622 171.132 15.8481 160.306 15.8481 148.789C15.8481 137.272 20.4622 126.445 28.8365 118.305C31.9259 115.302 36.4312 112.07 42.2376 108.693L46.1697 106.409L97.384 109.908L58.1092 153.859L103.322 115.68L106.36 157.693L104.497 161.036L104.491 161.03ZM186.194 179.273C177.819 187.413 166.682 191.899 154.835 191.899C142.987 191.899 131.85 187.413 123.475 179.273C119.526 175.434 115.05 169.126 110.539 161.03L108.676 157.687L111.714 115.675L156.927 153.854L117.652 109.902L168.866 106.403L172.798 108.688C178.605 112.064 183.11 115.296 186.199 118.299C203.492 135.11 203.492 162.462 186.199 179.267L186.194 179.273Z" fill="#D75496"/>
</svg>
